<svg width="60" height="60" viewBox="0 0 60 60" fill="none" xmlns="http://www.w3.org/2000/svg">
<g clip-path="url(#clip0_1_14)">
<g filter="url(#filter0_d_1_14)">
<path d="M30 57C44.9117 57 57 44.9117 57 30C57 15.0883 44.9117 3 30 3C15.0883 3 3 15.0883 3 30C3 44.9117 15.0883 57 30 57Z" fill="#F93535"/>
<path d="M30 43C37.1797 43 43 37.1797 43 30C43 22.8203 37.1797 17 30 17C22.8203 17 17 22.8203 17 30V43H30Z" fill="white"/>
<path d="M36 28H24V30H36V28Z" fill="#F93535"/>
<path d="M29 33H24V35H29V33Z" fill="#F93535"/>
</g>
</g>
<defs>
<filter id="filter0_d_1_14" x="2" y="2" width="60" height="60" filterUnits="userSpaceOnUse" color-interpolation-filters="sRGB">
<feFlood flood-opacity="0" result="BackgroundImageFix"/>
<feColorMatrix in="SourceAlpha" type="matrix" values="0 0 0 0 0 0 0 0 0 0 0 0 0 0 0 0 0 0 127 0" result="hardAlpha"/>
<feOffset dx="2" dy="2"/>
<feGaussianBlur stdDeviation="1.5"/>
<feComposite in2="hardAlpha" operator="out"/>
<feColorMatrix type="matrix" values="0 0 0 0 0 0 0 0 0 0 0 0 0 0 0 0 0 0 0.25 0"/>
<feBlend mode="normal" in2="BackgroundImageFix" result="effect1_dropShadow_1_14"/>
<feBlend mode="normal" in="SourceGraphic" in2="effect1_dropShadow_1_14" result="shape"/>
</filter>
<clipPath id="clip0_1_14">
<rect width="60" height="60" fill="white"/>
</clipPath>
</defs>
</svg>
